<?xml version="1.0" encoding="UTF-8"?>
<svg width="1064px" height="709px" viewBox="0 0 1064 709" version="1.1" xmlns="http://www.w3.org/2000/svg" xmlns:xlink="http://www.w3.org/1999/xlink">
    <!-- Generator: Sketch 64 (93537) - https://sketch.com -->
    <title>Browser-Frame</title>
    <desc>Created with Sketch.</desc>
    <g id="Page-1" stroke="none" stroke-width="1" fill="none" fill-rule="evenodd">
        <g id="Browser-Frame" fill-rule="nonzero">
            <g id="Rectangle">
                <g id="path-1-link" fill="#FFFFFF">
                    <rect id="path-1" x="0" y="0" width="1064" height="709" rx="8"></rect>
                </g>
                <g id="path-1-link" fill="#EDEDF4">
                    <rect id="path-1" x="0" y="0" width="1064" height="709" rx="8"></rect>
                </g>
            </g>
            <g id="Combined-Shape" transform="translate(1027.000000, 17.000000)">
                <g id="path-3-link" fill="#FFFFFF">
                    <path d="M1,0 L12,0 C12.55228,0 13,0.4477153 13,1 C13,1.5522847 12.55228,2 12,2 L1,2 C0.44772,2 0,1.5522847 0,1 C0,0.4477153 0.44772,0 1,0 Z M1,4 L12,4 C12.55228,4 13,4.4477153 13,5 C13,5.5522847 12.55228,6 12,6 L1,6 C0.44772,6 0,5.5522847 0,5 C0,4.4477153 0.44772,4 1,4 Z M1,8 L12,8 C12.55228,8 13,8.4477153 13,9 C13,9.5522847 12.55228,10 12,10 L1,10 C0.44772,10 0,9.5522847 0,9 C0,8.4477153 0.44772,8 1,8 Z" id="path-3"></path>
                </g>
                <g id="path-3-link" fill="#5E6065">
                    <path d="M1,0 L12,0 C12.55228,0 13,0.4477153 13,1 C13,1.5522847 12.55228,2 12,2 L1,2 C0.44772,2 0,1.5522847 0,1 C0,0.4477153 0.44772,0 1,0 Z M1,4 L12,4 C12.55228,4 13,4.4477153 13,5 C13,5.5522847 12.55228,6 12,6 L1,6 C0.44772,6 0,5.5522847 0,5 C0,4.4477153 0.44772,4 1,4 Z M1,8 L12,8 C12.55228,8 13,8.4477153 13,9 C13,9.5522847 12.55228,10 12,10 L1,10 C0.44772,10 0,9.5522847 0,9 C0,8.4477153 0.44772,8 1,8 Z" id="path-3"></path>
                </g>
            </g>
            <g id="Rectangle" transform="translate(80.000000, 8.000000)">
                <g id="path-4-link" fill="#FFFFFF">
                    <rect id="path-4" x="0" y="0" width="903" height="30" rx="2"></rect>
                </g>
                <g id="path-4-link" fill="#FAFAFC">
                    <rect id="path-4" x="0" y="0" width="903" height="30" rx="2"></rect>
                </g>
            </g>
            <circle id="Oval" fill="#02B159" cx="22.5" cy="21.5" r="4.5"></circle>
            <g id="Oval" transform="translate(35.000000, 17.000000)">
                <g id="path-5-link" fill="#FFFFFF">
                    <circle id="path-5" cx="4.5" cy="4.5" r="4.5"></circle>
                </g>
                <g id="path-5-link" fill="#5E6065">
                    <circle id="path-5" cx="4.5" cy="4.5" r="4.5"></circle>
                </g>
            </g>
            <g id="Oval" transform="translate(52.000000, 17.000000)">
                <g id="path-6-link" fill="#FFFFFF">
                    <circle id="path-6" cx="4.5" cy="4.5" r="4.5"></circle>
                </g>
                <g id="path-6-link" fill="#5E6065">
                    <circle id="path-6" cx="4.5" cy="4.5" r="4.5"></circle>
                </g>
            </g>
        </g>
    </g>
</svg>