<svg id="GPU" xmlns="http://www.w3.org/2000/svg" xmlns:xlink="http://www.w3.org/1999/xlink" viewBox="0 0 430 405.62"><defs><style>.cls-1,.cls-17,.cls-18,.cls-20,.cls-21{fill:none;}.cls-2{fill:#333232;}.cls-3{fill:#ace0f1;}.cls-4{fill:#83d7ea;}.cls-5{fill:#e76657;}.cls-6{fill:#667e8e;}.cls-7{fill:#fff;}.cls-8{fill:#738da3;}.cls-9{fill:#2885e0;}.cls-10{fill:#e24b40;}.cls-11{fill:#dee8ed;}.cls-12{fill:#565656;opacity:0.15;}.cls-12,.cls-24{isolation:isolate;}.cls-13{fill:#00b058;}.cls-14{clip-path:url(#clip-path);}.cls-15{fill:#90c965;}.cls-16{fill:#e2e2e2;}.cls-17,.cls-20{stroke:#828282;}.cls-17,.cls-18,.cls-20,.cls-21{stroke-miterlimit:10;}.cls-17{stroke-width:0.5px;}.cls-18,.cls-21{stroke:#f4eeea;}.cls-18{stroke-width:0.25px;stroke-dasharray:0.5;}.cls-19{clip-path:url(#clip-path-5);}.cls-20{stroke-width:0.53px;}.cls-21{stroke-width:0.26px;stroke-dasharray:0.53;}.cls-22{fill:url(#linear-gradient);}.cls-23{fill:url(#linear-gradient-2);}.cls-24{opacity:0.27;fill:url(#linear-gradient-3);}.cls-25{stroke:#bdbdbd;stroke-width:0.18px;fill:url(#linear-gradient-4);}.cls-26{fill:url(#linear-gradient-5);}.cls-27{fill:url(#linear-gradient-6);}</style><clipPath id="clip-path" transform="translate(0 0)"><path class="cls-1" d="M198.4,382.61l-4,2a.86.86,0,0,0-.35,1.15.84.84,0,0,0,.35.35l4.4,2a2.83,2.83,0,0,1,.85,3.9,2.86,2.86,0,0,1-1.35,1.1h0a2.18,2.18,0,0,1-1.4.2l-21.1-1.8v10.6H237a2,2,0,0,0,2-2h0a8.19,8.19,0,0,0-7.2-8.1h0a92,92,0,0,1-20.7-4.9Z"/></clipPath><clipPath id="clip-path-5" transform="translate(0 0)"><path class="cls-1" d="M278.6,281.41l1.6-4.4a.87.87,0,0,1,1.11-.53.86.86,0,0,1,.49.43l2.7,4.4a2.94,2.94,0,0,0,4.14.35,3,3,0,0,0,1-1.55h0a2.56,2.56,0,0,0,.1-1.5l-4.6-21.9,11.1-1.3,7.7,64.1a2.06,2.06,0,0,1-1.77,2.3h0a8.73,8.73,0,0,1-9.4-6.5h0a104.34,104.34,0,0,0-7.7-21.1Z"/></clipPath><linearGradient id="linear-gradient" x1="250.36" y1="-4841.64" x2="249.56" y2="-4867.96" gradientTransform="matrix(0.98, -0.2, -0.2, -0.98, -961.5, -4650.28)" gradientUnits="userSpaceOnUse"><stop offset="0" stop-color="#2468d4"/><stop offset="1"/></linearGradient><linearGradient id="linear-gradient-2" x1="249.78" y1="-4843.24" x2="249.78" y2="-4876.7" gradientTransform="matrix(0.98, -0.2, -0.2, -0.98, -961.5, -4650.28)" gradientUnits="userSpaceOnUse"><stop offset="0"/><stop offset="0.61" stop-color="#0e0e0e"/><stop offset="1" stop-color="#464646"/></linearGradient><linearGradient id="linear-gradient-3" x1="276.66" y1="-4861.1" x2="273.89" y2="-4871.43" gradientTransform="matrix(0.98, -0.2, -0.2, -0.98, -988.13, -4662.28)" gradientUnits="userSpaceOnUse"><stop offset="0" stop-color="#fff"/><stop offset="1" stop-color="#fff" stop-opacity="0"/></linearGradient><linearGradient id="linear-gradient-4" x1="249.55" y1="916.23" x2="249.55" y2="893.44" gradientTransform="translate(-172.75 -775.62) rotate(-11.53)" gradientUnits="userSpaceOnUse"><stop offset="0" stop-color="#fff"/><stop offset="0.6" stop-color="#d7d7d7"/><stop offset="1" stop-color="#606060"/></linearGradient><linearGradient id="linear-gradient-5" x1="447.93" y1="767.46" x2="485.04" y2="730.23" gradientTransform="translate(5.66 -741.13) rotate(8.05)" gradientUnits="userSpaceOnUse"><stop offset="0" stop-color="#387eb8"/><stop offset="1" stop-color="#366994"/></linearGradient><linearGradient id="linear-gradient-6" x1="463.83" y1="774.57" x2="503.65" y2="736.43" gradientTransform="translate(5.66 -741.13) rotate(8.05)" gradientUnits="userSpaceOnUse"><stop offset="0" stop-color="#ffe052"/><stop offset="1" stop-color="#ffc331"/></linearGradient></defs><title>Linode-Developer2</title><g id="GPU_PERSON" data-name="GPU PERSON"><polygon class="cls-2" points="113.1 257.21 77 402.81 79.3 402.81 127.2 257.21 113.1 257.21"/><polygon class="cls-2" points="219.5 257.21 255.6 402.81 253.3 402.81 205.4 257.21 219.5 257.21"/><path class="cls-3" d="M71.7,181.61c.9,52.7,43.6,92.1,94.5,92.1s93.6-39.3,94.5-92.1C261.9,118.61,70.7,118.61,71.7,181.61Z" transform="translate(0 0)"/><path class="cls-4" d="M127.4,252.31a92.44,92.44,0,0,0,60.5,5.9c-5.4-1.4-10.7-2.7-16-3.9Z" transform="translate(0 0)"/><path class="cls-4" d="M106.3,235.11c-6.3-1.5-9.5-8.1-10.2-15.1a34.21,34.21,0,0,1,0-6.4,28,28,0,0,1,1.1-5.2,17.49,17.49,0,0,1,22-11.34c.41.13.82.28,1.22.44,19,7.6,30.9,12.3,38.1,15.2h0l67.5,25.9a91.47,91.47,0,0,0,31.3-67.2c-5.1-7.2-36.5-23-91.1-23s-86.1,15.8-91.1,23a91.09,91.09,0,0,0,45,77l-9.4-11.1A35.41,35.41,0,0,1,106.3,235.11Z" transform="translate(0 0)"/><path class="cls-5" d="M300,300.21s.1-9.6-3.5-12.6-.8-7-.9-11.2,2.9-13.1-2-16.6-9-3-12.3-1.3a14.37,14.37,0,0,1-6.5,1.8.09.09,0,0,1-.1-.1h0L270.8,278c.3.1.5.1.8.2,0,0,12.1,8.9,14,13.4s4.5,9.4,4.5,9.4l3.6,13.2c1.2,3.2,3.2,5.4,6.6,5.4h0Z" transform="translate(0 0)"/><path class="cls-5" d="M231.1,392.41c-9.5-2.3-29.2-5-32.8-9.8-1-1.4-2.5-3.8-4.1-6.5-17-1-10.5-.6-16.7-1l-1.2,22.2s0,4.9,3.6,4.9h54.8a3.71,3.71,0,0,0,3.68-3.74,3.77,3.77,0,0,0-.58-2C236.7,394.81,234.7,393.21,231.1,392.41Z" transform="translate(0 0)"/><path class="cls-6" d="M143.9,210.61l19.2,29.5,6.2.1,7.3,137.3h23.6c13.7-174.5,9.5-129.2,11.8-167.1C212.1,210.31,148.2,210,143.9,210.61Z" transform="translate(0 0)"/><path class="cls-7" d="M290.8,170l-23.2-46.9s-58.3-39.5-73.6-43.7a124.54,124.54,0,0,0-29.3-4.2S138,71.71,123.1,78s-52.5,73.5-52.5,73.5c-3.6,8-1.1,14.3,6.5,18.4h44.2v53.2h93.8l-13-107.8,75.2,54.6h13.5Zm-168.6,0-17.6-20.1,24.6-37.2Z" transform="translate(0 0)"/><path class="cls-5" d="M209.4,170.31l-6.3-7.5c-1.5-1.2-7.9-1.3-9.8-1.1-38.8,6.3-119.1-29.8-121.6-4.3-.6,6.8,6.7,12.9,15.9,13.2l91.3,3.2h0c3.3.2,6.3-1,7.7-3.1C191,170.91,195.7,170.71,209.4,170.31Z" transform="translate(0 0)"/><path class="cls-8" d="M226.1,238.61l-67.5-25.9h0c-7.3-2.9-19.2-7.6-38.1-15.2a17.53,17.53,0,0,0-22.79,9.76c-.15.38-.29.76-.41,1.14a28,28,0,0,0-1.1,5.2,27.4,27.4,0,0,0,0,6.4c.7,7.1,3.9,13.6,10.2,15.1.2.1.5.3.7.4l66.9,19.3c4.6,1.1,9.3,2.2,14,3.4,33.5,8.7,68.5,20.3,83.9,23.5l3.5-24.3Z" transform="translate(0 0)"/><path class="cls-6" d="M110.8,237.31l9.4,11.1a74.29,74.29,0,0,0,7.3,3.8l44.6,2.1a15,15,0,0,1,2,.5l-66.9-19.3A20.17,20.17,0,0,0,110.8,237.31Z" transform="translate(0 0)"/><path class="cls-1" d="M154.7,59.21" transform="translate(0 0)"/><path class="cls-1" d="M154.3,63.11a1.23,1.23,0,0,1,.1-.6C154.4,62.71,154.3,62.91,154.3,63.11Z" transform="translate(0 0)"/><path class="cls-9" d="M173.1,65.51c-5-2.6-15-22.1-15-22.1s1.7,6.4,3.3,11.8c1.3,4.4,11.7,14.5,15.6,19.7.1-1.4.3-3,.5-5.1.2-1.6,1.1-1.9,2.4-1.9h0C179.5,68,177.4,67.71,173.1,65.51Z" transform="translate(0 0)"/><path class="cls-2" d="M206.5,28.71c-9.7-4.3-34.4-43.8-44.3-22.4-7-2.1-10.5,1.3-9.9,5.6C129.3,7.41,139,31,139,31.31c0,0-4.8,4.5-3.3,12.8.8,4.1,4.3,15.5,13.1,15.5.4.6-11.1,15.7,6.7,14.4.6-22.8.9-29-.3-29.2a8,8,0,0,1-1.9-3.5V41h0v-.4c.2-.1.5-.2.7-.3a5.89,5.89,0,0,0,3.7-5.7c11.9-.4,13.3-9.9,14.7-16.2,6.4,11,14.3,13.4,20,13.8.5,2.4,1,5,1.6,7.8,0,0-3.3-1.1-3.2-.2s0,17.6-1,21.6c-2.1,9.1-8,6.3-11.3,6.1h-.1c-1.2-.1-3-.8-3.2.6-.1,1.1-3.2,3.9.4,8.9a10.52,10.52,0,0,0,2.9-1.2,13.87,13.87,0,0,1,6.9-1.5,11.86,11.86,0,0,0,6.6-1.9c4.6-3.3,4.7-8,3.7-13a9.76,9.76,0,0,1-.2-4.2c.2-.9.9-1.7,1.2-2.7a9.18,9.18,0,0,0,.3-3.3c-.2-1.5-1-2.6-1.4-4s.1-1.9.3-3.1c.8-3.5,2.2-7.2,0-9.8.9,0,1.6-.1,2.2-.1a24.29,24.29,0,0,0,8.7-1.8l-6.4-2.2C200.2,28.31,204.2,29.61,206.5,28.71Z" transform="translate(0 0)"/><path class="cls-5" d="M192.1,32.31c-5.6-.4-13.5-2.8-20-13.8-1.4,6.2-2.7,15.8-14.7,16.2a5.82,5.82,0,0,1-3.7,5.7c-.2.1-.5.2-.7.3v.4h0v.3a8,8,0,0,0,1.9,3.5c2,.4-.2,21.9.4,33,2.8,13.3,19.4,7.8,19.5,1.2,0-.1-.2.8.5-5.4-3.5-4.7-12.9-13.8-14-17.7-1.4-4.9-3-10.6-3-10.6s9,17.5,13.4,19.8a19.1,19.1,0,0,0,6.2,2.3h.1c3.3.2,9.1,3.1,11.3-6.1.9-4,1.1-18.9,1-19.7s3.4-.1,3.4-.1C194,38.61,192.6,34.71,192.1,32.31Z" transform="translate(0 0)"/><path class="cls-10" d="M172,65.31c-4.5-2.3-13.4-19.8-13.4-19.8s1.6,5.7,3,10.6c1.1,3.9,10.5,13,14,17.7.1-1.2.3-2.7.5-4.6.2-1.4,1-1.7,2.2-1.7h0C177.7,67.51,175.8,67.31,172,65.31Z" transform="translate(0 0)"/><polygon class="cls-6" points="313.2 170.01 212 170.01 218.1 163.72 313.2 163.72 313.2 170.01"/><path class="cls-2" d="M414.7,145.81a7.6,7.6,0,0,1-7.6,7.6H222.6a7.6,7.6,0,0,1-7.6-7.6h0v-109a7.6,7.6,0,0,1,7.6-7.6H407.1a7.6,7.6,0,0,1,7.6,7.6h0Z" transform="translate(0 0)"/><rect class="cls-11" x="296.9" y="121.21" width="36.8" height="48.8"/><rect class="cls-2" y="170.01" width="399.8" height="13"/><polygon points="26.9 127.81 46.6 127.81 47.1 129.51 26.3 129.51 26.9 127.81"/><path d="M51.8,136.81v-4.1a.79.79,0,0,0-.78-.8H48.8l-.8-2.5a1.21,1.21,0,0,0-1.1-.8H26.5a1.17,1.17,0,0,0-1.1.8l-.8,2.5H22.4a.79.79,0,0,0-.8.78v4.12a.79.79,0,0,0,.78.8H51C51.5,137.71,51.8,137.31,51.8,136.81Z" transform="translate(0 0)"/><polygon class="cls-9" points="49.6 137.72 23.8 137.72 25 147.63 48.4 147.63 49.6 137.72"/><path class="cls-9" d="M26,155.61l1.6,13.2a1,1,0,0,0,.9.8H44.9a.88.88,0,0,0,.9-.8l1.6-13.2Z" transform="translate(0 0)"/><polygon class="cls-7" points="48.4 147.63 25 147.63 26 155.63 47.4 155.63 48.4 147.63"/><path class="cls-7" d="M43.3,151.61a6.5,6.5,0,1,1-6.5-6.5,6.5,6.5,0,0,1,6.5,6.5Z" transform="translate(0 0)"/><polygon class="cls-11" points="169.1 111.03 153.7 119.81 153.7 137.51 169.1 146.41 184.4 137.51 184.4 119.81 169.1 111.03"/><path class="cls-9" d="M144.8,122.71l2.1-.5v10.2c0,1.1.3,1.8,1,2a1.75,1.75,0,0,1-1.7.9c-1,0-1.4-.7-1.4-2Z" transform="translate(0 0)"/><path class="cls-9" d="M150.2,135.11v-7.3H149v-1.7h3.3v9.1Zm1.1-12.6a1.24,1.24,0,0,1,.9.4,1.27,1.27,0,0,1,.4.9,1.24,1.24,0,0,1-.4.9,1.27,1.27,0,0,1-.9.4,1.24,1.24,0,0,1-.9-.4,1.27,1.27,0,0,1-.4-.9,1.24,1.24,0,0,1,.4-.9,1,1,0,0,1,.9-.4Z" transform="translate(0 0)"/><path class="cls-9" d="M160.7,135.11v-5.3a3.58,3.58,0,0,0-.4-1.7,1.71,1.71,0,0,0-1.5-.5,2.24,2.24,0,0,0-1,.3,1.81,1.81,0,0,0-.8.7v6.6h-2.1v-9.1h1.5l.4.8a3.13,3.13,0,0,1,2.6-1,3.4,3.4,0,0,1,2.6,1,3.66,3.66,0,0,1,.9,2.7v5.6Z" transform="translate(0 0)"/><path class="cls-9" d="M164.5,130.51a4.87,4.87,0,0,1,1.2-3.4,4.37,4.37,0,0,1,7.6,3.3,5.13,5.13,0,0,1-1.2,3.5,4,4,0,0,1-3.2,1.3,3.82,3.82,0,0,1-3.2-1.3A4.67,4.67,0,0,1,164.5,130.51Zm2.2,0c0,2,.7,3,2.2,3a1.94,1.94,0,0,0,1.6-.8,3.65,3.65,0,0,0,.6-2.2c0-2-.7-3-2.2-3a1.94,1.94,0,0,0-1.6.8A3.65,3.65,0,0,0,166.7,130.51Z" transform="translate(0 0)"/><path class="cls-9" d="M180.8,135v-.6a1.87,1.87,0,0,1-.9.5,5.68,5.68,0,0,1-1.3.2,3.77,3.77,0,0,1-3-1.2,5,5,0,0,1-1.1-3.4,5.13,5.13,0,0,1,1.2-3.5,4.12,4.12,0,0,1,3.1-1.4,4,4,0,0,1,1.9.4v-3.6l2.1-.5v13Zm-.1-6.9a2,2,0,0,0-1.4-.5,2.8,2.8,0,0,0-2,.8,3.07,3.07,0,0,0-.7,2.2c0,1.9.9,2.8,2.7,2.8a3.24,3.24,0,0,0,.8-.2.93.93,0,0,0,.6-.4Z" transform="translate(0 0)"/><path class="cls-9" d="M193.1,131.11h-6.5a2.15,2.15,0,0,0,.8,1.7,2.9,2.9,0,0,0,1.9.6,3,3,0,0,0,2.2-.8l.8,1.6a5.23,5.23,0,0,1-3.3.9,4.47,4.47,0,0,1-3.3-1.2,4.54,4.54,0,0,1-1.2-3.4,4.76,4.76,0,0,1,1.3-3.5,4.23,4.23,0,0,1,3.2-1.3,4.36,4.36,0,0,1,3.2,1.2,4.06,4.06,0,0,1,1.2,3A11.69,11.69,0,0,0,193.1,131.11Zm-6.4-1.6h4.5a2.05,2.05,0,0,0-2.09-2H189a2.2,2.2,0,0,0-2.3,2Z" transform="translate(0 0)"/><path class="cls-12" d="M404.9,393H24.9c-6.2.1-24.9.7-24.9,4.6,0,4.6,26.9,4.6,26.9,4.6H403.1s26.9,0,26.9-4.6C429.9,393.71,411.1,393.11,404.9,393Z" transform="translate(0 0)"/><path class="cls-13" d="M198.4,382.61l-4,2a.86.86,0,0,0-.35,1.15.84.84,0,0,0,.35.35l4.4,2a2.83,2.83,0,0,1,.85,3.9,2.86,2.86,0,0,1-1.35,1.1h0a2.18,2.18,0,0,1-1.4.2l-21.1-1.8v10.6H237a2,2,0,0,0,2-2h0a8.19,8.19,0,0,0-7.2-8.1h0a92,92,0,0,1-20.7-4.9Z" transform="translate(0 0)"/><g class="cls-14"><path class="cls-15" d="M174.9,400v-6.4l21.8,1.8h.4a4.45,4.45,0,0,0,2-.4,5.08,5.08,0,0,0,3-4.2,4.76,4.76,0,0,0-2.2-4.3l-.1-.1-2.4-1.1,1.6-.8,11.5,4.6c7.9,3.3,18.1,4.6,25.3,5.4a6.15,6.15,0,0,1,5.4,6.1Z" transform="translate(0 0)"/></g><g class="cls-14"><polygon class="cls-16" points="173.9 397.63 241.2 397.63 241.2 405.63 173.2 405.63 173.9 397.63"/></g><g class="cls-14"><line class="cls-17" x1="174.4" y1="398.61" x2="242.2" y2="398.61"/></g><g class="cls-14"><path class="cls-18" d="M174.7,392.61l22.1,1.8h.3a4.17,4.17,0,0,0,1.6-.3,4,4,0,0,0,2.4-3.4,3.58,3.58,0,0,0-1.7-3.3h-.1l-4.2-1.9,3.7-1.9,12.1,4.6c7.1,3.1,18.8,4.8,25.9,5.7" transform="translate(0 0)"/></g><path class="cls-13" d="M278.6,281.41l1.6-4.4a.87.87,0,0,1,1.11-.53.86.86,0,0,1,.49.43l2.7,4.4a2.94,2.94,0,0,0,4.14.35,3,3,0,0,0,1-1.55h0a2.56,2.56,0,0,0,.1-1.5l-4.6-21.9,11.1-1.3,7.7,64.1a2.06,2.06,0,0,1-1.77,2.3h0a8.73,8.73,0,0,1-9.4-6.5h0a104.34,104.34,0,0,0-7.7-21.1Z" transform="translate(0 0)"/><g class="cls-19"><path class="cls-15" d="M293.9,254.71l-6.8.8,4.7,22.6c0,.1.1.3.1.4a5.38,5.38,0,0,1-4.3,5.9,4.74,4.74,0,0,1-4.7-1.8l-.1-.1-1.4-2.3-.6,1.7,6.3,11.4c4.4,7.9,7.1,18.3,8.9,25.8a6.48,6.48,0,0,0,7.1,4.9Z" transform="translate(0 0)"/></g><g class="cls-19"><polygon class="cls-16" points="291.2 253.91 299.7 324.43 308.2 323.43 299.6 252.22 291.2 253.91"/></g><g class="cls-19"><line class="cls-20" x1="292.3" y1="254.41" x2="300.9" y2="325.31"/></g><g class="cls-19"><path class="cls-21" d="M286.1,255.41l4.7,22.9a.37.37,0,0,0,.1.3,3.19,3.19,0,0,1-.2,1.7,4.11,4.11,0,0,1-3.2,2.9,3.79,3.79,0,0,1-3.7-1.4v-.1l-2.5-4.1-1.5,4.1,6.3,12.1c4.1,7.1,7.4,19.1,9.2,26.5" transform="translate(0 0)"/></g><path class="cls-7" d="M256.7,80a19.06,19.06,0,1,1-7.9-37.3h0l.4-.1a19.06,19.06,0,1,1,7.9,37.3Z" transform="translate(0 0)"/><path id="path3157" class="cls-22" d="M256.7,78.41A17.52,17.52,0,1,1,270,57.5h0A17.49,17.49,0,0,1,256.73,78.4Z" transform="translate(0 0)"/><path id="path4777" class="cls-23" d="M256.4,77.21A16.1,16.1,0,1,1,268.59,58v0a16,16,0,0,1-12,19.16Z" transform="translate(0 0)"/><path id="path3659" class="cls-24" d="M264.5,55.41a12.55,12.55,0,1,1-14.8-9.8,12.72,12.72,0,0,1,14.8,9.8" transform="translate(0 0)"/><path id="path3793" class="cls-25" d="M245,69.71c-.3-.2-.7-.5-1-.7a1,1,0,0,1-.5-.7,1.19,1.19,0,0,1,.2-.8,1.87,1.87,0,0,1,.9-.5,4.5,4.5,0,0,1,3,.3,13.62,13.62,0,0,1,2,.4,11.69,11.69,0,0,1,1.2.3c.1,0,.4-.2.5-.2s.1-.1.2-.2c.1-.5.2-.4.2-.5l.1-.1h-.1l-.1-.1v-.1c-.4-1.8-.7-3.6-1.1-5.3a15,15,0,0,1-.3-5,2,2,0,0,1,.6-1.5c.1,0,.2-.1.3-.1a1.19,1.19,0,0,1,1.2.4,2.62,2.62,0,0,0,.5.6c.2.7.6,1.7,1.1,3.1l.8,3.8c-.1,0-.1.1-.1.2v.2a4,4,0,0,1,.1,1.2c.1,0,.1,0,.1.1v.2a.45.45,0,0,0,0,.5,1.71,1.71,0,0,1,.1.5c.2.4.7.6,1.7.7a5.41,5.41,0,0,0,2.2-1.7,11.14,11.14,0,0,1,2-2,2.31,2.31,0,0,1,1.4-.1c.3.1.6.4.6.5.1.4-.1.5-.3,1.2a4.69,4.69,0,0,1-1.7,2.7,3.09,3.09,0,0,1-.6.7c-.3.3-.5.4-.7.6s-1.2,1.1-2.6,2.3c-.5.6-.8.9-.9,1a3.1,3.1,0,0,1-1.1.9,2.41,2.41,0,0,1-.8.2,6.67,6.67,0,0,1-3.4-.3,17.42,17.42,0,0,1-3-1.4,6.65,6.65,0,0,0-2.7-1.3m-4.6-4,.7-.1.4.2c.2,0,.4,0,.5.2a3.54,3.54,0,0,1,1.2.7,1.17,1.17,0,0,1-.8.9c-.8,0-1.3-.6-2-1.9m22.7-3.9c-.1-1.1.8-1.8,2.1-2.4q.6-.15.6.6a3.54,3.54,0,0,1-.4,1.1,1.77,1.77,0,0,1-1.8,1.1l-.5-.4m-12.5-8.1a1.54,1.54,0,0,0-.3-.6,1.94,1.94,0,0,1-.2-.7l.1-.1a1.67,1.67,0,0,1-.1-.8v-.9c0-.3.1-.4.4-.5a.37.37,0,0,1,.3.1c.1,0,.1.1.2.4a.27.27,0,0,0,.24.3h.06a6.25,6.25,0,0,1,.5,2.8c-.1,0-.1.1-.1.2s0,.1-.1.2H251a.78.78,0,0,1-.4-.4" transform="translate(0 0)"/><g id="layer1"><g id="g1894"><path id="path8615" class="cls-26" d="M373.36,47c-11.8-1.7-11.8,3.6-11.8,3.6l-.7,5.3,11.3,1.6-.2,1.6-15.8-2.2s-7.4-1.9-9.1,10,5,12.4,5,12.4l3.9.6.8-5.5s.7-6.6,7.4-5.7,11.2,1.6,11.2,1.6,6.3,1,7.2-5.2,1.5-10.2,1.5-10.2S385.66,48.84,373.36,47Zm-6.8,2.7a2,2,0,1,1-2.3,1.7,2.11,2.11,0,0,1,2.3-1.73Z" transform="translate(0 0)"/><path id="path8620" class="cls-27" d="M367.06,93.44c11.8,1.7,11.8-3.6,11.8-3.6l.7-5.3-11.3-1.6.2-1.6,15.8,2.2s7.4,1.9,9.1-10-5-12.4-5-12.4l-3.9-.6-.8,5.5s-.7,6.6-7.4,5.7-11.2-1.6-11.2-1.6-6.3-1-7.2,5.2-1.5,10.2-1.5,10.2S354.76,91.71,367.06,93.44Zm6.7-2.7a2,2,0,1,1,2.3-1.7,1.93,1.93,0,0,1-2.12,1.7l-.18,0Z" transform="translate(0 0)"/></g></g></g></svg>