<?xml version="1.0" encoding="utf-8"?>
<!-- Generator: Adobe Illustrator 23.0.4, SVG Export Plug-In . SVG Version: 6.00 Build 0)  -->
<svg version="1.1" id="Layer_1" xmlns="http://www.w3.org/2000/svg" xmlns:xlink="http://www.w3.org/1999/xlink" x="0px" y="0px"
	 viewBox="0 0 100 100" style="enable-background:new 0 0 100 100;" xml:space="preserve">
<style type="text/css">
	.st0{fill:#10B057;}
	.st1{fill:none;stroke:#333233;stroke-width:4.5035;stroke-miterlimit:10;}
</style>
<title>kubernetes</title>
<g>
	<path class="st0" d="M88.2,57.7L62,52.2c0-0.1,0-0.1,0-0.2c0-2-0.5-3.9-1.4-5.5L81.8,30c1-0.8,1.2-2.2,0.4-3.2
		c-0.8-1-2.2-1.2-3.2-0.4L57.8,42.9c-1.6-1.4-3.5-2.4-5.7-2.8l0-26.9c0-1.2-1-2.3-2.3-2.3c-1.2,0-2.3,1-2.3,2.3l0,26.9
		c-2.1,0.4-4,1.3-5.5,2.7L21.3,26.1c-1-0.8-2.4-0.6-3.2,0.3c-0.8,1-0.6,2.4,0.3,3.2l20.8,16.7c-0.9,1.7-1.4,3.6-1.4,5.7
		c0,0.2,0,0.3,0,0.5l-26.1,6.1c-1.2,0.3-2,1.5-1.7,2.7c0.2,1,1.2,1.7,2.2,1.7c0.2,0,0.3,0,0.5-0.1l26.1-6.1c0.8,1.9,2.1,3.5,3.7,4.7
		L30.5,85.5c-0.6,1.1-0.1,2.5,1,3c0.3,0.2,0.7,0.2,1,0.2c0.8,0,1.6-0.5,2-1.2l12-23.9c1.1,0.3,2.2,0.5,3.3,0.5
		c1.1,0,2.2-0.2,3.2-0.4l11.8,24.1c0.4,0.8,1.2,1.3,2,1.3c0.3,0,0.7-0.1,1-0.2c1.1-0.5,1.6-1.9,1-3L57.2,61.6c1.7-1.3,3.1-3,3.9-5
		l26.2,5.5c0.2,0,0.3,0,0.5,0c1,0,2-0.7,2.2-1.8C90.2,59.2,89.4,58,88.2,57.7z M44.4,47.6l5.5-2.6l5.5,2.6l1.4,5.9l-3.8,4.8h-6.1
		L43,53.6L44.4,47.6z"/>
	<circle class="st1" cx="49.9" cy="52" r="24.3"/>
</g>
</svg>
