<?xml version="1.0" encoding="utf-8"?>
<!-- Generator: Adobe Illustrator 23.0.4, SVG Export Plug-In . SVG Version: 6.00 Build 0)  -->
<svg version="1.1" id="Layer_1" xmlns="http://www.w3.org/2000/svg" xmlns:xlink="http://www.w3.org/1999/xlink" x="0px" y="0px"
	 viewBox="0 0 114.91 74.85" style="enable-background:new 0 0 114.91 74.85;" xml:space="preserve">
<style type="text/css">
	.st0{fill:#0AAF57;}
</style>
<title>kubernetesAsset 185</title>
<g>
	<path d="M98.98,74.8v0.05H20.75C9.23,74.24,0.16,64.81,0,53.28c-0.09-6.91,3.03-13.11,7.98-17.19v21.94
		c0,5.86,4.75,10.61,10.61,10.61h56.98c5.86,0,10.61-4.75,10.61-10.61V8.45c10.2,6.41,15.64,18.85,12.59,31.19
		c8.47,0.73,15.22,7.4,16.05,15.86C115.78,65.2,108.68,73.84,98.98,74.8z"/>
	<path class="st0" d="M73.87,0H20.28c-2.19,0-3.96,1.77-3.96,3.96v53.59c0,2.19,1.77,3.96,3.96,3.96h53.59
		c2.19,0,3.96-1.77,3.96-3.96V3.96C77.83,1.77,76.06,0,73.87,0z M64.23,54.04c-2.55,0-4.61-2.07-4.61-4.61
		c0-2.55,2.07-4.61,4.61-4.61c2.55,0,4.61,2.07,4.61,4.61C68.85,51.98,66.78,54.04,64.23,54.04z"/>
</g>
</svg>
