<?xml version="1.0" encoding="utf-8"?>
<!-- Generator: Adobe Illustrator 23.0.4, SVG Export Plug-In . SVG Version: 6.00 Build 0)  -->
<svg version="1.1" id="Layer_1" xmlns="http://www.w3.org/2000/svg" xmlns:xlink="http://www.w3.org/1999/xlink" x="0px" y="0px"
	 viewBox="0 0 100 100" style="enable-background:new 0 0 100 100;" xml:space="preserve">
<style type="text/css">
	.st0{clip-path:url(#SVGID_2_);}
	.st1{fill:#10B057;}
	.st2{fill:none;stroke:#010101;stroke-width:3.9278;stroke-linejoin:round;}
	.st3{clip-path:url(#SVGID_4_);}
</style>
<title>teams</title>
<g>
	<g id="Layer_1-2">
		<g>
			<defs>
				<path id="SVGID_1_" d="M24.7,48.5l0.5-2.4c-5.5-2.8-9.4-9.5-9.4-17.4c0-10.4,6.7-18.8,15-18.8c6.5,0,12.1,5.2,14.2,12.5
					c-8.3,2.7-14.5,11.7-14.5,22.4c0,7.4,2.9,14.2,7.7,18.5c-0.8,0.4-1.6,0.8-2.4,1.1c-3.9,1.8-9.2,4.3-13.1,9.4H9
					c-2.9,0-5.3-2.3-5.3-5.3c0-0.4,0-0.8,0.1-1.2C7.2,53.7,21.3,53.1,24.7,48.5z"/>
			</defs>
			<clipPath id="SVGID_2_">
				<use xlink:href="#SVGID_1_"  style="overflow:visible;"/>
			</clipPath>
			<g class="st0">
				<ellipse class="st1" cx="28.3" cy="102.7" rx="36.7" ry="55.5"/>
			</g>
		</g>
		<path class="st2" d="M24.7,48.5l0.5-2.4c-5.5-2.8-9.4-9.5-9.4-17.4c0-10.4,6.7-18.8,15-18.8c6.5,0,12.1,5.2,14.2,12.5
			c-8.3,2.7-14.5,11.7-14.5,22.4c0,7.4,2.9,14.2,7.7,18.5c-0.8,0.4-1.6,0.8-2.4,1.1c-3.9,1.8-9.2,4.3-13.1,9.4H9
			c-2.9,0-5.3-2.3-5.3-5.3c0-0.4,0-0.8,0.1-1.2C7.2,53.7,21.3,53.1,24.7,48.5z"/>
		<path class="st1" d="M50.2,90h-22c-2.9,0-5.3-2.3-5.3-5.2c0-0.4,0-0.9,0.1-1.3c3.4-13.7,17.4-14.2,20.8-18.9l0.5-2.4
			c-5.5-2.8-9.4-9.5-9.4-17.4c0-10.4,6.7-18.8,15-18.8S65,34.5,65,44.9c0,7.8-3.8,14.5-9.2,17.3l0.5,2.7c3.8,4.4,17.4,5.2,20.6,18.7
			c0.7,2.8-1.1,5.6-3.9,6.3C72.6,90,72.2,90,71.8,90L50.2,90z"/>
		<g>
			<defs>
				<path id="SVGID_3_" d="M77.2,73.8L77.2,73.8c-3.9-5-9.2-7.5-13.1-9.4c-0.8-0.4-1.6-0.7-2.4-1.1c4.8-4.2,7.7-11.1,7.7-18.5
					c0-10.7-6.1-19.7-14.5-22.4C57.1,15.2,62.6,10,69.2,10c8.3,0,15,8.4,15,18.8c0,7.8-3.8,14.5-9.2,17.3l0.5,2.7
					c3.8,4.4,17.4,5.2,20.6,18.7c0.6,2.8-1.1,5.6-4,6.3c-0.4,0.1-0.8,0.1-1.1,0.1H77.2z"/>
			</defs>
			<clipPath id="SVGID_4_">
				<use xlink:href="#SVGID_3_"  style="overflow:visible;"/>
			</clipPath>
			<g class="st3">
				<ellipse class="st1" cx="69.8" cy="102.7" rx="36.7" ry="55.5"/>
			</g>
		</g>
		<path class="st2" d="M77.2,73.8L77.2,73.8c-3.9-5-9.2-7.5-13.1-9.4c-0.8-0.4-1.6-0.7-2.4-1.1c4.8-4.2,7.7-11.1,7.7-18.5
			c0-10.7-6.1-19.7-14.5-22.4C57.1,15.2,62.6,10,69.2,10c8.3,0,15,8.4,15,18.8c0,7.8-3.8,14.5-9.2,17.3l0.5,2.7
			c3.8,4.4,17.4,5.2,20.6,18.7c0.6,2.8-1.1,5.6-4,6.3c-0.4,0.1-0.8,0.1-1.1,0.1H77.2z"/>
	</g>
</g>
</svg>
