<?xml version="1.0" encoding="utf-8"?>
<!-- Generator: Adobe Illustrator 23.0.4, SVG Export Plug-In . SVG Version: 6.00 Build 0)  -->
<svg version="1.1" id="Layer_1" xmlns="http://www.w3.org/2000/svg" xmlns:xlink="http://www.w3.org/1999/xlink" x="0px" y="0px"
	 viewBox="0 0 120.96 90" style="enable-background:new 0 0 120.96 90;" xml:space="preserve">
<style type="text/css">
	.st0{fill:#FFFFFF;stroke:#333232;stroke-width:3;stroke-linecap:round;stroke-miterlimit:10;}
	.st1{fill:#1AB060;stroke:#333232;stroke-width:2.936;stroke-linecap:round;stroke-miterlimit:10;}
	.st2{fill:#333232;}
	.st3{fill:#FFFFFF;}
	.st4{fill:none;stroke:#333232;stroke-width:2;stroke-linecap:round;stroke-miterlimit:10;}
</style>
<g>
	<g>
		<g>
			<path class="st0" d="M102.24,40.18c0.51-2.16,0.78-4.4,0.78-6.71c0-16.09-13.04-29.13-29.13-29.13
				c-11.55,0-21.53,6.72-26.25,16.47c-2.52-2.32-5.87-3.73-9.56-3.73c-7.8,0-14.12,6.32-14.12,14.12c0,0.12,0.01,0.23,0.01,0.35
				C11.8,31.65,1.97,41.55,1.97,53.75c0,11.91,9.37,21.62,21.14,22.18l79.36-0.03c9.24-0.7,16.53-8.42,16.53-17.85
				C118.99,48.55,111.59,40.78,102.24,40.18z"/>
		</g>
	</g>
	<g>
		<g>
			<path class="st1" d="M88.87,85.66H32.09c-1.52,0-2.77-1.25-2.77-2.77v-40c0-1.52,1.25-2.77,2.77-2.77h56.79
				c1.52,0,2.77,1.25,2.77,2.77v40C91.64,84.42,90.4,85.66,88.87,85.66z"/>
			<rect x="29.32" y="40.93" class="st2" width="61.56" height="9.64"/>
			<g>
				<circle class="st3" cx="35.5" cy="45.08" r="2.19"/>
				<circle class="st3" cx="42.23" cy="45.08" r="2.19"/>
				<circle class="st3" cx="48.96" cy="45.08" r="2.19"/>
			</g>
		</g>
		<g>
			<rect x="36.84" y="56.77" class="st4" width="13.37" height="20.17"/>
			<g>
				<line class="st4" x1="55.97" y1="56.77" x2="84.12" y2="56.77"/>
				<line class="st4" x1="55.97" y1="63.5" x2="84.12" y2="63.5"/>
				<line class="st4" x1="55.97" y1="70.22" x2="84.12" y2="70.22"/>
				<line class="st4" x1="55.97" y1="76.94" x2="84.12" y2="76.94"/>
			</g>
		</g>
	</g>
</g>
</svg>
