<?xml version="1.0" encoding="utf-8"?>
<!-- Generator: Adobe Illustrator 23.0.4, SVG Export Plug-In . SVG Version: 6.00 Build 0)  -->
<svg version="1.1" id="Layer_1" xmlns="http://www.w3.org/2000/svg" xmlns:xlink="http://www.w3.org/1999/xlink" x="0px" y="0px"
	 viewBox="0 0 121 90" style="enable-background:new 0 0 121 90;" xml:space="preserve">
<style type="text/css">
	.st0{fill:#FFFFFF;stroke:#333232;stroke-width:3.1918;stroke-linecap:round;stroke-miterlimit:10;}
	.st1{fill:#FFFFFF;stroke:#333232;stroke-width:3;stroke-linecap:round;stroke-miterlimit:10;}
	.st2{fill:#1AB060;}
	.st3{fill:none;stroke:#333232;stroke-width:3;stroke-linecap:round;stroke-miterlimit:10;}
	.st4{fill:#1AB060;stroke:#333232;stroke-width:3;stroke-linecap:round;stroke-miterlimit:10;}
	.st5{fill:#FFFFFF;}
</style>
<title>Group 106</title>
<desc>Created with Sketch.</desc>
<g>
	<g>
		<path class="st0" d="M95.2,41.8c0,11.7-5,22.2-13.1,29.4c-7.5-5.4-16.7-8.5-26.6-8.5s-19,3.1-26.5,8.5C21,64,16,53.5,16,41.8
			C16,19.9,33.7,2.2,55.6,2.2S95.2,19.9,95.2,41.8z"/>
		<path class="st1" d="M95.2,41.8c0,11.6-5,22.1-13,29.3c-7.5-5.4-16.6-8.5-26.5-8.5s-19,3.2-26.5,8.5c-8-7.2-13-17.7-13-29.3
			C16.2,20,33.9,2.3,55.7,2.3S95.2,19.9,95.2,41.8z"/>
		<path class="st2" d="M59.1,14.4c0,1.9-1.6,3.4-3.5,3.4s-3.5-1.5-3.5-3.4s1.6-3.5,3.5-3.5S59.1,12.4,59.1,14.4z"/>
		<path class="st2" d="M30.9,42.4c0,1.9-1.6,3.4-3.5,3.4S24,44.3,24,42.4c0-1.9,1.6-3.5,3.5-3.5S30.9,40.5,30.9,42.4z"/>
		<path class="st2" d="M39.7,23.7c0,1.9-1.6,3.4-3.5,3.4s-3.5-1.5-3.5-3.4s1.6-3.5,3.5-3.5C38.1,20.3,39.7,21.8,39.7,23.7z"/>
		<path class="st2" d="M78.9,23.7c0,1.9-1.6,3.4-3.5,3.4S72,25.6,72,23.7s1.6-3.5,3.5-3.5S78.9,21.8,78.9,23.7z"/>
		<path class="st2" d="M87.3,42.5c0,1.9-1.6,3.4-3.5,3.4s-3.5-1.5-3.5-3.4s1.6-3.5,3.5-3.5C85.7,39,87.3,40.5,87.3,42.5z"/>
		<line class="st3" x1="55.6" y1="47.8" x2="79.5" y2="33"/>
		<path class="st1" d="M61.2,47.8c0,3-2.5,5.5-5.5,5.5s-5.5-2.5-5.5-5.5c0-3.1,2.5-5.5,5.5-5.5S61.2,44.7,61.2,47.8z"/>
	</g>
	<g>
		<circle class="st4" cx="88.1" cy="70.9" r="16.9"/>
		<g>
			<path class="st5" d="M87.1,81.7v-2.5c-0.7-0.1-1.5-0.3-2.3-0.6c-0.8-0.3-1.5-0.8-2.1-1.3l1.6-2.5c0.6,0.5,1.3,0.9,1.8,1.1
				c0.6,0.2,1.2,0.4,1.8,0.4c0.7,0,1.2-0.1,1.6-0.4c0.3-0.3,0.5-0.7,0.5-1.3c0-0.4-0.2-0.8-0.5-1.1s-0.7-0.6-1.2-0.9s-1-0.6-1.6-0.8
				c-0.6-0.3-1.1-0.6-1.6-1s-0.9-0.8-1.2-1.4c-0.3-0.5-0.5-1.2-0.5-1.9c0-1.3,0.3-2.3,1-3.1c0.7-0.8,1.6-1.3,2.8-1.6V60h2.5v2.6
				c0.8,0.1,1.5,0.4,2.1,0.7c0.6,0.4,1.2,0.8,1.6,1.3l-1.9,2.1c-0.5-0.4-0.9-0.7-1.3-1c-0.4-0.2-0.9-0.3-1.4-0.3
				c-0.6,0-1.1,0.1-1.4,0.4s-0.5,0.7-0.5,1.2c0,0.4,0.2,0.7,0.5,1s0.7,0.5,1.2,0.8s1,0.5,1.6,0.8s1.1,0.6,1.6,1s0.9,0.9,1.2,1.4
				c0.3,0.5,0.5,1.2,0.5,2c0,1.2-0.3,2.3-1,3.1c-0.7,0.9-1.6,1.5-3,1.7v2.6h-2.4V81.7z"/>
		</g>
	</g>
</g>
</svg>
