<?xml version="1.0" encoding="utf-8"?>
<!-- Generator: Adobe Illustrator 23.0.4, SVG Export Plug-In . SVG Version: 6.00 Build 0)  -->
<svg version="1.1" id="Layer_1" xmlns="http://www.w3.org/2000/svg" xmlns:xlink="http://www.w3.org/1999/xlink" x="0px" y="0px"
	 viewBox="0 0 121 90" style="enable-background:new 0 0 121 90;" xml:space="preserve">
<style type="text/css">
	.st0{fill:#1AB060;stroke:#333232;stroke-width:3;stroke-linecap:round;stroke-miterlimit:10;}
	.st1{fill:#FFFFFF;stroke:#333232;stroke-width:3;stroke-linecap:round;stroke-miterlimit:10;}
</style>
<title>API</title>
<g>
	<g>
		<g>
			<polygon class="st0" points="85.79,81.79 74.34,39.05 57.79,43.49 69.24,86.22 75.41,76.14 			"/>
		</g>
		<g>
			<polygon class="st0" points="35.21,81.79 46.66,39.05 63.21,43.49 51.76,86.22 45.59,76.14 			"/>
		</g>
	</g>
	<polygon class="st1" points="60.5,6.87 65.55,2.54 68.4,8.55 74.78,6.65 74.94,13.3 81.54,14.16 78.98,20.3 84.66,23.76 
		79.82,28.33 83.6,33.81 77.33,36.02 78.55,42.55 71.92,42.02 70.38,48.49 64.54,45.31 60.5,50.59 56.46,45.31 50.62,48.49 
		49.08,42.02 42.45,42.55 43.67,36.02 37.4,33.81 41.18,28.33 36.34,23.76 42.02,20.3 39.46,14.16 46.06,13.3 46.22,6.65 52.6,8.55 
		55.45,2.54 	"/>
	<circle class="st1" cx="60.5" cy="26.57" r="13.55"/>
</g>
</svg>
